# xmcd
#
# Track frame offsets:
#	150
#	3913
#	17824
#	34319
#	40978
#	56677
#	72472
#	91106
#	95780
#	114193
#	131208
#	137787
#	154038
#	171620
#
# Disc length: 2385 seconds
#
# Revision: 1
# Processed by: cddbd v1.5.1PL2 Copyright (c) Steve Scherf et al.
# Submitted via: audiograbber 1.83.01
#
DISCID=c3094f0e
DTITLE=Judas - So siehts aus
DYEAR=2006
DGENRE=Hip-Hop
TTITLE0=Intro
TTITLE1=J
TTITLE2=Es Como Es feat. Flame and Della MC
TTITLE3=Interlude
TTITLE4=War
TTITLE5=Fremd
TTITLE6=Das hier feat. Millionadi
TTITLE7=Was läuft?! Skit
TTITLE8=Düren City
TTITLE9=Buch der Erinnerungen
TTITLE10=Interlude
TTITLE11=Die Zeit ist reif feat. El Postre
TTITLE12=Augen auf
TTITLE13=Outro
EXTD=
EXTT0=
EXTT1=
EXTT2=
EXTT3=
EXTT4=
EXTT5=
EXTT6=
EXTT7=
EXTT8=
EXTT9=
EXTT10=
EXTT11=
EXTT12=
EXTT13=
PLAYORDER=
